Coordinates
version=1
nRows=11
nColumns=42
inDegrees=yes

Units are S.I. units (second, meters, Newtons, ...)
If the header above contains a line with 'inDegrees', this indicates whether rotational values are in degrees (yes) or radians (no).

endheader
time	pelvis_tilt	pelvis_list	pelvis_rotation	pelvis_tx	pelvis_ty	pelvis_tz	hip_flexion_r	hip_adduction_r	hip_rotation_r	knee_angle_r	knee_adduction_r	knee_angle_r_beta	ankle_angle_r	subtalar_angle_r	mtp_angle_r	hip_flexion_l	hip_adduction_l	hip_rotation_l	knee_angle_l	knee_adduction_l	knee_angle_l_beta	ankle_angle_l	subtalar_angle_l	mtp_angle_l	lumbar_extension	lumbar_bending	lumbar_rotation	arm_flex_r	arm_add_r	arm_rot_r	elbow_flex_r	pro_sup_r	wrist_flex_r	wrist_dev_r	arm_flex_l	arm_add_l	arm_rot_l	elbow_flex_l	pro_sup_l	wrist_flex_l	wrist_dev_l
      3.46000000	      7.37740053	     -3.88855342	      7.93447850	      1.17495236	      0.85316283	     -0.14227467	      1.79299839	     13.55455696	     -9.51412046	     27.90897456	     -5.57267702	      0.48710350	     26.50778347	    -13.72434972	     -7.50003563	     29.08299712	      1.94658393	     -4.21294736	     43.48622027	     -9.85893510	      0.75897772	     16.27124825	    -19.06635120	     -7.50003563	    -33.27445401	      7.40605543	      0.47440297	     22.23707489	    -12.32727297	      0.54634159	     38.37413623	     90.00000001	      0.00000000	      0.00000000	      8.74050897	     -5.15248252	    -19.58320434	     25.44101237	     90.00000001	      0.00000000	      0.00000000
      3.47000000	      7.32447915	     -3.96565940	      7.73258318	      1.18398780	      0.85201642	     -0.14209769	      1.06403992	     13.77798002	     -9.63140810	     27.73926859	     -5.83827331	      0.48414157	     27.04643878	    -13.24106648	     -7.50003500	     29.53352535	      1.82736968	     -5.48299365	     40.94712910	     -9.72192032	      0.71466222	     16.01574283	    -18.93983157	     -7.50003500	    -33.16505379	      7.41830077	      0.67234836	     22.84845904	    -12.41841343	      0.79374905	     38.81324252	     90.00000001	      0.00000000	      0.00000000	      8.22084468	     -4.96499794	    -19.82311885	     25.26163478	     90.00000001	      0.00000000	      0.00000000
      3.48000000	      7.44378692	     -3.96907116	      7.54536242	      1.19315558	      0.85110072	     -0.14219029	      0.06030934	     13.78922163	     -9.80507930	     27.50563798	     -5.83398387	      0.48006395	     27.84296416	    -12.56299118	     -7.50003421	     29.68567242	      1.74992829	     -6.96648249	     38.43862148	     -9.57992322	      0.67088050	     15.58342436	    -18.76961448	     -7.50003421	    -33.25931291	      7.42720888	      0.79277639	     23.46951702	    -12.57400931	      1.20930172	     39.30225995	     90.00000001	      0.00000000	      0.00000000	      7.81049361	     -4.77615434	    -20.23596266	     24.98940745	     90.00000001	      0.00000000	      0.00000000
      3.49000000	      7.44873417	     -4.01329879	      7.37739806	      1.20240446	      0.84974598	     -0.14223294	     -0.68194326	     13.83341004	    -10.67272280	     27.39799291	     -6.18621443	      0.47818518	     29.01929614	    -10.50057741	     -7.50003084	     29.97033523	      1.63226222	     -8.23543352	     36.22217973	     -9.26079007	      0.63219630	     15.39604651	    -18.52269299	     -7.50003084	    -33.19655648	      7.44781190	      0.88417599	     23.89404200	    -13.09863555	      3.22373224	     40.10673837	     90.00000001	      0.00000000	      0.00000000	      7.79169115	     -4.36303770	    -22.63993002	     24.05295870	     90.00000001	      0.00000000	      0.00000000
      3.50000000	      7.44380611	     -4.06278300	      7.23678722	      1.21171295	      0.84835002	     -0.14232780	     -1.52655668	     13.93584907	    -10.80915640	     27.21108334	     -6.27455023	      0.47492300	     29.59501954	    -10.15398200	     -7.50003006	     30.18175365	      1.54330459	     -9.26582818	     34.16758068	     -8.83925339	      0.59633678	     15.23788237	    -18.19847988	     -7.50003006	    -33.12246984	      7.47338716	      0.96446991	     24.45668483	    -13.10970009	      3.32165047	     40.45031927	     90.00000001	      0.00000000	      0.00000000	      7.34618546	     -4.22949763	    -22.92944296	     23.91517270	     90.00000001	      0.00000000	      0.00000000
      3.51000000	      7.45249746	     -4.10327638	      7.12628124	      1.22115649	      0.84686228	     -0.14246437	     -2.39997260	     14.02879618	    -11.05471596	     27.00405814	     -6.41213435	      0.47130973	     30.26331303	     -9.52664030	     -7.50002930	     30.33817905	      1.48241323	    -10.13052938	     32.39776681	     -8.38914779	      0.56544770	     15.17319446	    -17.73923964	     -7.50002930	    -33.04981894	      7.49433160	      1.01439855	     24.93858191	    -13.11653524	      3.49989574	     40.82392414	     90.00000001	      0.00000000	      0.00000000	      6.95124174	     -4.10172102	    -23.25834286	     23.70933041	     90.00000001	      0.00000000	      0.00000000
      3.52000000	      7.44905915	     -4.13678147	      7.03832610	      1.23074694	      0.84514827	     -0.14268232	     -3.13626820	     14.02872693	    -12.08297157	     26.95924825	     -6.77107249	      0.47052765	     31.35469912	     -7.46035376	     -7.50002670	     30.50418970	      1.46613673	    -10.88214081	     30.99330700	     -8.01055787	      0.54093525	     15.21892508	    -17.08961156	     -7.50002670	    -32.92213462	      7.51327680	      1.02137481	     25.30455727	    -13.28913437	      4.30324869	     41.37777907	     90.00000001	      0.00000000	      0.00000000	      6.85297592	     -3.90394890	    -24.86602819	     23.10197654	     90.00000001	      0.00000000	      0.00000000
      3.53000000	      7.29447869	     -4.25854709	      6.93948341	      1.24037286	      0.84313382	     -0.14280549	     -3.76806825	     14.20364428	    -12.23680689	     26.89316242	     -6.87547137	      0.46937423	     31.57736024	     -7.44854594	     -7.50002661	     30.91517767	      1.33108226	    -11.29269942	     30.15776836	     -7.47854791	      0.52635235	     15.18029395	    -16.93223508	     -7.50002661	    -32.61679244	      7.60850159	      1.08411017	     25.71224141	    -13.27561109	      4.31215704	     41.57439637	     90.00000001	      0.00000000	      0.00000000	      6.43656609	     -3.82937308	    -24.93897010	     22.92997912	     90.00000001	      0.00000000	      0.00000000
      3.54000000	      7.51149131	     -4.14618543	      6.89433517	      1.25043803	      0.84176973	     -0.14314696	     -4.93136617	     14.10467250	    -12.97603495	     26.66224387	     -7.18974444	      0.46534394	     32.79428363	     -5.55066687	     -7.50002285	     30.68300227	      1.56141344	    -11.80285920	     29.27201912	     -7.40974614	      0.51089311	     15.19594518	    -15.45207808	     -7.50002285	    -32.70022395	      7.45571329	      0.97283026	     25.96147325	    -13.25863406	      4.92671594	     42.04044253	     90.00000001	      0.00000000	      0.00000000	      6.39427162	     -3.73287443	    -26.57934942	     22.37475253	     90.00000001	      0.00000000	      0.00000000
      3.55000000	      7.41529541	     -4.19635496	      6.83144664	      1.26032041	      0.83978084	     -0.14338544	     -5.59510193	     14.18529468	    -13.03181760	     26.79141326	     -7.24103632	      0.46759837	     32.84291812	     -5.54753265	     -7.50002283	     31.00492459	      1.67160832	    -11.80361035	     29.17533683	     -7.27949011	      0.50920569	     15.15344373	    -15.40877206	     -7.50002283	    -32.42072183	      7.44397959	      1.09777607	     26.12176169	    -13.23510665	      4.93133235	     42.11373318	     90.00000001	      0.00000000	      0.00000000	      6.25291189	     -3.72151637	    -26.59836754	     22.32266202	     90.00000001	      0.00000000	      0.00000000
      3.56000000	      7.60926142	     -4.14184225	      6.83244143	      1.27052929	      0.83835372	     -0.14372938	     -6.76106462	     14.26200422	    -13.12452129	     26.57798084	     -7.42357730	      0.46387327	     33.63012559	     -5.37373470	     -7.50002262	     30.83582093	      1.88221285	    -11.56636307	     29.17704807	     -7.17482090	      0.50923555	     14.48196897	    -14.72650903	     -7.50002262	    -32.46864425	      7.38843350	      0.77891661	     26.51321954	    -12.92554722	      5.02626079	     42.50474612	     90.00000001	      0.00000000	      0.00000000	      5.76409648	     -3.83367040	    -26.74242889	     22.04770243	     90.00000001	      0.00000000	      0.00000000
